# xmcd
#
# Track frame offsets: 
#        150
#        13533
#        29487
#        46913
#        63831
#        82136
#        95877
#        117043
#        134434
#        148256
#        172178
#        191126
#        206791
#        223269
#        240663
#        257376
#        272161
#        285969
#        296775
#        309434
#        324644
#
# Disc length: 4548 seconds
#
# Revision: 1
# Processed by: cddbd v1.5.2PL0 Copyright (c) Steve Scherf et al.
# Submitted via: ExactAudioCopyFreeDBPlugin 1.0
#
DISCID=4d11c215
DTITLE=Dalida - Deutsch Gasang Ihre Grossen Erfolge Vol.2
DYEAR=2015
DGENRE=Chanson
TTITLE0=Er war gerade 18 Jahr
TTITLE1=Nein, zärtlich bist du nicht
TTITLE2=Captain Sky
TTITLE3=Das Lied vom Clown
TTITLE4=Worte, nur Worte
TTITLE5=Um nicht allein zu sein
TTITLE6=Mein lieber Herr
TTITLE7=Spiel Balalaika
TTITLE8=Mon Chérie
TTITLE9=Gigi der Geliebte
TTITLE10=Buona Sera Fantasia
TTITLE11=Komm züruck
TTITLE12=Mama
TTITLE13=Der Charme der kleinen Worte
TTITLE14=Der Schlüssel der Liebe
TTITLE15=Ciao Amore Ciao
TTITLE16=Lieber kleiner Mann
TTITLE17=Nie
TTITLE18=Regenzeit - Tränenleid
TTITLE19=Am Tag als der Regen kam (Version Dance 1980)
TTITLE20=Gigi, bist du das dort?
EXTD=
EXTT0=
EXTT1=
EXTT2=
EXTT3=
EXTT4=
EXTT5=
EXTT6=
EXTT7=
EXTT8=
EXTT9=
EXTT10=
EXTT11=
EXTT12=
EXTT13=
EXTT14=
EXTT15=
EXTT16=
EXTT17=
EXTT18=
EXTT19=
EXTT20=
PLAYORDER=
